<svg width="122" height="124" viewBox="0 0 122 124" fill="none" xmlns="http://www.w3.org/2000/svg">
<rect width="122" height="124" rx="61" fill="#3B3B3B"/>
<path fill-rule="evenodd" clip-rule="evenodd" d="M79.3007 49.6C79.3007 59.8725 71.1076 68.2 61.0007 68.2C50.8939 68.2 42.7007 59.8725 42.7007 49.6C42.7007 39.3275 50.8939 31 61.0007 31C71.1076 31 79.3007 39.3275 79.3007 49.6ZM73.2007 49.6C73.2007 56.4483 67.7386 62 61.0007 62C54.2629 62 48.8007 56.4483 48.8007 49.6C48.8007 42.7517 54.2629 37.2 61.0007 37.2C67.7386 37.2 73.2007 42.7517 73.2007 49.6Z" fill="white"/>
<path d="M61.0008 77.5C41.2539 77.5 24.429 89.3681 18.02 105.995C19.5813 107.571 21.226 109.062 22.9468 110.459C27.7192 95.1939 42.6907 83.7 61.0008 83.7C79.3108 83.7 94.2823 95.1939 99.0547 110.459C100.776 109.062 102.42 107.571 103.981 105.995C97.5725 89.3681 80.7476 77.5 61.0008 77.5Z" fill="white"/>
</svg>
