<svg width="44" height="44" viewBox="0 0 44 44" fill="none" xmlns="http://www.w3.org/2000/svg">
<path d="M22 0.5C33.8741 0.5 43.5 10.1259 43.5 22C43.5 33.8741 33.8741 43.5 22 43.5C10.1259 43.5 0.5 33.8741 0.5 22C0.5 10.1259 10.1259 0.5 22 0.5Z" fill="#2C2C2C"/>
<path d="M22 0.5C33.8741 0.5 43.5 10.1259 43.5 22C43.5 33.8741 33.8741 43.5 22 43.5C10.1259 43.5 0.5 33.8741 0.5 22C0.5 10.1259 10.1259 0.5 22 0.5Z" stroke="#2C2C2C" stroke-linecap="round"/>
<path d="M29.3667 15.8417C28.941 15.4159 28.4357 15.0781 27.8795 14.8476C27.3232 14.6172 26.7271 14.4985 26.125 14.4985C25.5229 14.4985 24.9268 14.6172 24.3705 14.8476C23.8143 15.0781 23.309 15.4159 22.8833 15.8417L22 16.7251L21.1167 15.8417C20.2569 14.982 19.0909 14.499 17.875 14.499C16.6591 14.499 15.4931 14.982 14.6333 15.8417C13.7736 16.7015 13.2906 17.8675 13.2906 19.0834C13.2906 20.2993 13.7736 21.4653 14.6333 22.3251L22 29.6917L29.3667 22.3251C29.7925 21.8994 30.1303 21.3941 30.3608 20.8379C30.5912 20.2816 30.7099 19.6855 30.7099 19.0834C30.7099 18.4813 30.5912 17.8851 30.3608 17.3289C30.1303 16.7727 29.7925 16.2674 29.3667 15.8417Z" stroke="#F5F5F5" stroke-width="1.6" stroke-linecap="round" stroke-linejoin="round"/>
</svg>
