<svg xmlns="http://www.w3.org/2000/svg" width="100" height="100" fill="none"><path fill="url(#a)" fill-rule="evenodd" d="m52.373.08.009-.018C38.39-.632 24.188 4.53 13.75 15.458 1.59 28.191-2.414 45.605 1.378 61.55c.77-.411 1.52-.845 2.264-1.291C29.906 45.108 45.376 15.352 50.549 4.121A161.723 161.723 0 0 0 52.374.08Zm-5.772 4.042C41.18 16.207 26.448 41.174 4.315 55.397a39.902 39.902 0 0 1-.39-5.482C3.926 24.8 23.25 5.697 46.602 4.122Zm36.964 77.921c17.864-18.874 16.29-47.547-1.602-64.653-2.077-1.986-4.023-3.321-6.348-4.83L13.323 77.067a45.067 45.067 0 0 0 5.533 6.379c17.892 17.105 47.022 17.286 64.71-1.402ZM8.073 77.068c2.14 3.387 4.395 6.187 7.421 9.08 19.956 19.078 51.591 18.36 70.66-1.604 19.07-19.964 18.352-51.614-1.603-70.692-2.892-2.766-5.638-4.778-8.948-6.713l-67.53 69.93Z" clip-rule="evenodd"/><defs><linearGradient id="a" x1="57.266" x2="57.266" y1="0" y2="100" gradientUnits="userSpaceOnUse"><stop offset=".001" stop-color="#D136F5"/><stop offset=".53" stop-color="#8828F4"/><stop offset="1" stop-color="#271DF3"/></linearGradient></defs></svg>